# xmcd
#
# Track frame offsets: 
#        183
#        17975
#        39958
#        59535
#        82105
#        97583
#        112870
#        138485
#        158383
#        181250
#
# Disc length: 2659 seconds
#
# Revision: 6
# Processed by: cddbd v1.5.2PL0 Copyright (c) Steve Scherf et al.
# Submitted via: ExactAudioCopy v1.1
#
DISCID=6f0a610a
DTITLE=Pops Staples - Peace To The Neighborhood
DYEAR=1992
DGENRE=Blues
TTITLE0=World In Motion
TTITLE1=Love Is A Precious Things
TTITLE2=America
TTITLE3=Down In Mississippi
TTITLE4=This May Be The Last Time
TTITLE5=(Peace To) The Neighborhood
TTITLE6=Miss Cocaine
TTITLE7=Pray On My Child
TTITLE8=Pray
TTITLE9=I Shall Not Be Moved
EXTD=YEAR: 1992
EXTT0=
EXTT1=
EXTT2=
EXTT3=
EXTT4=
EXTT5=
EXTT6=
EXTT7=
EXTT8=
EXTT9=
PLAYORDER=
